<svg xmlns="http://www.w3.org/2000/svg" xmlns:xlink="http://www.w3.org/1999/xlink" id="body_1" width="75" height="75">

<g transform="matrix(5 0 0 5 0 0)">
    <path d="M4.5 4.5L4.90534 4.20725C 4.77836 4.03144 4.55252 3.95753 4.34617 4.02425C 4.13981 4.09098 4 4.28313 4 4.5L4 4.5L4.5 4.5zM7.5 14C 3.91015 14 1 11.0899 1 7.5L1 7.5L0 7.5C 0 11.6421 3.35786 15 7.5 15L7.5 15L7.5 14zM14 7.5C 14 11.0899 11.0899 14 7.5 14L7.5 14L7.5 15C 11.6421 15 15 11.6421 15 7.5L15 7.5L14 7.5zM7.5 1C 11.0899 1 14 3.91015 14 7.5L14 7.5L15 7.5C 15 3.35786 11.6421 0 7.5 0L7.5 0L7.5 1zM7.5 0C 3.35786 0 0 3.35786 0 7.5L0 7.5L1 7.5C 1 3.91015 3.91015 1 7.5 1L7.5 1L7.5 0zM5 12L5 4.5L4 4.5L4 12L5 12zM4.09466 4.79275L10.5947 13.7927L11.4053 13.2073L4.90534 4.20725L4.09466 4.79275zM10 4L10 10L11 10L11 4L10 4z" stroke="none" fill="#ffffff" fill-rule="nonzero" />
</g>
</svg>