<svg xmlns="http://www.w3.org/2000/svg" version="1.1" xmlns:xlink="http://www.w3.org/1999/xlink" xmlns:svgjs="http://svgjs.dev/svgjs" width="2000" height="1247" viewBox="0 0 2000 1247"><g transform="matrix(1,0,0,1,-1.2121212121212466,0.504858299595071)"><svg viewBox="0 0 396 247" data-background-color="#282634" preserveAspectRatio="xMidYMid meet" height="1247" width="2000" xmlns="http://www.w3.org/2000/svg" xmlns:xlink="http://www.w3.org/1999/xlink"><g id="tight-bounds" transform="matrix(1,0,0,1,0.2400000000000091,-0.09999999999999432)"><svg viewBox="0 0 395.52 247.2" height="247.2" width="395.52"><g><svg></svg></g><g><svg viewBox="0 0 395.52 247.2" height="247.2" width="395.52"><g transform="matrix(1,0,0,1,39.55199999999999,83.5038377986966)"><svg viewBox="0 0 316.416 80.19232440260681" height="80.19232440260681" width="316.416"><g><svg viewBox="0 0 316.416 80.19232440260681" height="80.19232440260681" width="316.416"><g><svg viewBox="0 0 316.416 80.19232440260681" height="80.19232440260681" width="316.416"><g><svg viewBox="0 0 316.416 80.19232440260681" height="80.19232440260681" width="316.416"><g><svg viewBox="0 0 316.416 80.19232440260681" height="80.19232440260681" width="316.416"><g transform="matrix(1,0,0,1,0,0)"><svg width="316.416" viewBox="3.5 -35 138.08999633789062 35" height="80.19232440260681" data-palette-color="#ff4057"><path d="M8.2-35L8.2 0 3.5 0 3.5-35 8.2-35ZM26-4.4L34.55-4.4 34.55 0 27.25 0Q25.2 0 24.02-0.08 22.85-0.15 21.1-0.68 19.35-1.2 18.15-2.25L18.15-2.25Q16.3-3.95 15.75-6.33 15.2-8.7 15.2-11.9L15.2-11.9 15.2-35 19.9-35 19.9-12Q19.9-9.1 20.55-7.45L20.55-7.45Q21.85-4.4 26-4.4L26-4.4ZM43.25-12.8L43.25 0 38.8 0 38.8-22Q38.8-27.4 42.27-31.2 45.75-35 51.25-35L51.25-35 62.7-35 62.7 0 58 0 58-30.6 51.25-30.6Q47.59-30.6 45.42-28.45 43.25-26.3 43.25-21.6L43.25-21.6 43.25-17.35Q46.05-20.3 51.25-20.3L51.25-20.3 55.8-20.3 55.8-15.9 51.25-15.9Q48.34-15.9 46.52-15.2 44.7-14.5 43.25-12.8L43.25-12.8ZM80.49-4.4L89.04-4.4 89.04 0 81.74 0Q79.69 0 78.52-0.08 77.34-0.15 75.59-0.68 73.84-1.2 72.64-2.25L72.64-2.25Q70.79-3.95 70.24-6.33 69.69-8.7 69.69-11.9L69.69-11.9 69.69-35 74.39-35 74.39-12Q74.39-9.1 75.04-7.45L75.04-7.45Q76.34-4.4 80.49-4.4L80.49-4.4ZM113.44-4.4L113.44 0 93.54 0 93.54-26.65Q93.54-30.35 95.89-32.6L95.89-32.6Q97.49-34.1 99.49-34.55 101.49-35 104.39-35L104.39-35 113.44-35 113.44-30.6 103.74-30.6Q98.24-30.6 98.24-26L98.24-26 98.24-20.3 109.79-20.3 109.79-15.9 98.24-15.9 98.24-4.4 113.44-4.4ZM117.94-34.4L117.94-34.4 117.94-35 122.64-35 122.64-34.4Q122.64-24.4 129.69-20.35L129.69-20.35Q133.64-22.55 135.21-26.05 136.79-29.55 136.79-34.4L136.79-34.4 136.79-35 141.59-35 141.59-33.95Q141.59-23.55 133.89-18.3L133.89-18.3Q141.59-12.95 141.59-2.65L141.59-2.65 141.59 0 136.79 0 136.79-2.2Q136.79-7.05 135.21-10.55 133.64-14.05 129.69-16.25L129.69-16.25Q122.64-12.2 122.64-2.2L122.64-2.2 122.64 0 117.94 0 117.94-2.2Q117.94-12.9 125.64-18.3L125.64-18.3Q117.94-23.6 117.94-34.4Z" opacity="1" transform="matrix(1,0,0,1,0,0)" fill="#ff4057" class="undefined-text-0" data-fill-palette-color="primary" id="text-0"></path></svg></g></svg></g></svg></g></svg></g><g></g></svg></g></svg></g><g mask="url(#956dd898-3eae-4f38-8c01-880454a89cf5)"><g transform="matrix(2.6222636816833735, 0, 0, 2.6222636816833735, 91.92019456029786, 1)"><svg xmlns="http://www.w3.org/2000/svg" xmlns:xlink="http://www.w3.org/1999/xlink" version="1.1" x="0" y="0" viewBox="9.63800048828125 3.246999979019165 80.7239990234375 93.50699615478516" enable-background="new 0 0 100 100" xml:space="preserve" height="93.50699615478516" width="80.7239990234375" class="icon-none" data-fill-palette-color="accent" id="none"><g fill="#dcdcdc" data-fill-palette-color="accent"><g fill="#dcdcdc" data-fill-palette-color="accent"><polygon points="36.703,11.011 9.638,26.636 9.638,38.757 36.703,23.131 63.767,38.757 63.767,26.636   " fill="#dcdcdc" data-fill-palette-color="accent"></polygon></g><g fill="#dcdcdc" data-fill-palette-color="accent"><polygon points="63.298,89.092 36.233,73.467 36.233,61.348 63.298,76.973 90.362,61.348 90.362,73.467   " fill="#dcdcdc" data-fill-palette-color="accent"></polygon></g><g fill="#dcdcdc" data-fill-palette-color="accent"><polygon points="9.638,42.012 36.703,26.386 47.198,32.446 20.134,48.072 20.134,79.324 9.638,73.264   " fill="#dcdcdc" data-fill-palette-color="accent"></polygon></g><g fill="#dcdcdc" data-fill-palette-color="accent"><polygon points="77.083,18.872 50.018,3.247 39.522,9.307 66.586,24.932 66.586,56.184 77.083,50.124   " fill="#dcdcdc" data-fill-palette-color="accent"></polygon></g><g fill="#dcdcdc" data-fill-palette-color="accent"><polygon points="23.01,81.127 23.011,49.876 33.507,43.816 33.507,75.068 60.571,90.693 50.075,96.754   " fill="#dcdcdc" data-fill-palette-color="accent"></polygon></g><g fill="#dcdcdc" data-fill-palette-color="accent"><polygon points="90.362,58.092 90.362,26.84 79.866,20.78 79.866,52.031 52.802,67.658 63.298,73.719   " fill="#dcdcdc" data-fill-palette-color="accent"></polygon></g></g></svg></g></g></svg></g><defs><mask id="937d3eeb-d0cd-4834-b9cf-572469e13a6d"><rect width="640" height="400" fill="white"></rect><rect width="348.05760000000004" height="103.53019397810846" fill="black" x="145.97119999999998" y="148.23490301094577" id="transform-me" transform="matrix(1,0,0,1,-122.24000000000001,-84.92615057351829)"></rect></mask><mask id="956dd898-3eae-4f38-8c01-880454a89cf5"><rect width="640" height="400" fill="white"></rect><rect width="348.05760000000004" height="118.05529075394642" fill="black" x="145.97119999999998" y="140.97235462302677" id="transform-me" transform="matrix(1,0,0,1,-122.24000000000001,-84.92615057351829)"></rect></mask></defs></svg><rect width="395.52" height="247.2" fill="none" stroke="none" visibility="hidden"></rect></g></svg></g></svg>